<?xml version="1.0" encoding="UTF-8"?><svg xmlns="http://www.w3.org/2000/svg" viewBox="0 0 1230.7 432.56"><path fill="#DC7A3C" d="M175.72,17.62c-11.63,8.86-21.64,16.76-30.48,23.74-7.32,5.78-13.64,10.77-19.64,15.33-34.08,25.93-53.1,34.31-105.61,36.18-.82.03-1.47.72-1.45,1.54.7,24.29,3.72,49.47,9,74.85,0,0,0,0,0,0,9.62,46.31,26.56,91.6,48.98,130.98,25.45,44.7,57.35,81.42,94.82,109.13.27.2.58.29.89.29.4,0,.8-.16,1.09-.47.52-.55.55-1.41.06-1.99-40.8-48.88-65.37-97.1-75.11-147.4-8.31-42.93-5.71-88.14,7.96-138.17,27.24-25.55,50.05-58.03,71.75-102.18.31-.62.14-1.38-.39-1.82-.54-.44-1.31-.46-1.86-.04Z"/><path fill="#DC7A3C" d="M345.09,94.42c.02-.82-.62-1.51-1.45-1.54-52.52-1.87-71.53-10.25-105.61-36.18-6-4.57-12.32-9.56-19.64-15.33-8.84-6.98-18.86-14.88-30.48-23.74-.55-.42-1.32-.41-1.86.04-.54.44-.7,1.2-.39,1.82,21.71,44.15,44.52,76.63,71.75,102.18,13.67,50.03,16.28,95.23,7.96,138.17-9.74,50.31-34.31,98.52-75.11,147.4-.49.58-.46,1.44.06,1.99.29.31.69.47,1.09.47.31,0,.62-.1.89-.29,37.46-27.72,69.37-64.43,94.82-109.13,22.42-39.38,39.36-84.67,48.98-130.98h0c5.27-25.38,8.3-50.57,9-74.86Z"/><path fill="#3C4142" d="M175.72,17.62c-11.63,8.86-21.64,16.76-30.48,23.74-7.32,5.78-13.64,10.77-19.64,15.33-34.08,25.93-53.1,34.31-105.61,36.18-.82.03-1.47.72-1.45,1.54.7,24.29,3.72,49.47,9,74.85,0,0,0,0,0,0,9.62,46.31,26.56,91.6,48.98,130.98,25.45,44.7,57.35,81.42,94.82,109.13.27.2.58.29.89.29.4,0,.8-.16,1.09-.47.52-.55.55-1.41.06-1.99-40.8-48.88-65.37-97.1-75.11-147.4-8.31-42.93-5.71-88.14,7.96-138.17,27.24-25.55,50.05-58.03,71.75-102.18.31-.62.14-1.38-.39-1.82-.54-.44-1.31-.46-1.86-.04ZM103.86,119.76c-.09.08-.18.16-.27.25-1.28,1.19-2.57,2.37-3.86,3.53-.49.44-.98.86-1.47,1.29-.91.8-1.81,1.6-2.73,2.38-.58.5-1.17.98-1.76,1.47-.83.7-1.66,1.4-2.5,2.09-.63.51-1.27,1.01-1.9,1.52-.81.64-1.61,1.29-2.42,1.93-.67.52-1.34,1.02-2.01,1.53-.79.6-1.58,1.21-2.38,1.8-.69.51-1.39,1.01-2.09,1.52-.79.57-1.57,1.15-2.37,1.71-.72.5-1.44,1-2.16,1.49-.79.54-1.57,1.09-2.36,1.62-.74.5-1.49.98-2.23,1.47-.79.52-1.57,1.03-2.37,1.54-.76.48-1.53.95-2.29,1.43-.79.49-1.59.99-2.39,1.47-.78.47-1.56.93-2.35,1.39-.8.47-1.6.94-2.4,1.41-.8.46-1.6.9-2.41,1.35-.81.45-1.61.9-2.42,1.34-.81.44-1.64.87-2.46,1.31-.82.43-1.63.86-2.45,1.28-.83.43-1.67.84-2.51,1.26-.83.41-1.65.83-2.48,1.23-.85.41-1.71.81-2.56,1.22-.84.39-1.67.79-2.52,1.18-.87.4-1.74.78-2.62,1.17-.85.38-1.69.75-2.55,1.12-.88.38-1.78.75-2.67,1.13-.59.25-1.19.49-1.78.74-4.91-24.09-7.77-47.98-8.52-71.07,51.82-2,72.05-11.03,105.83-36.74,6.02-4.58,12.35-9.58,19.69-15.37,7.5-5.92,15.85-12.51,25.3-19.77-20.76,41.04-42.64,71.6-68.54,95.82Z"/><path fill="#3C4142" d="M345.09,94.42c.02-.82-.62-1.51-1.45-1.54-52.52-1.87-71.53-10.25-105.61-36.18-6-4.57-12.32-9.56-19.64-15.33-8.84-6.98-18.86-14.88-30.48-23.74-.55-.42-1.32-.41-1.86.04-.54.44-.7,1.2-.39,1.82,21.71,44.15,44.52,76.63,71.75,102.18,13.67,50.03,16.28,95.23,7.96,138.17-9.74,50.31-34.31,98.52-75.11,147.4-.49.58-.46,1.44.06,1.99.29.31.69.47,1.09.47.31,0,.62-.1.89-.29,37.46-27.72,69.37-64.43,94.82-109.13,22.42-39.38,39.36-84.67,48.98-130.98h0c5.27-25.38,8.3-50.57,9-74.86ZM284.51,298.77c-22.89,40.2-51.03,73.89-83.76,100.3,36.26-45.85,58.4-91.33,67.57-138.68,8.15-42.08,5.93-86.28,-6.79-134.96.07.06.15.13.22.19.52.46,1.04.91,1.56,1.37.86.76,1.72,1.52,2.59,2.26.58.5,1.16.98,1.75,1.47.82.69,1.64,1.38,2.47,2.05.61.5,1.23.99,1.84,1.48.81.65,1.62,1.3,2.43,1.93.63.49,1.27.98,1.91,1.47.81.62,1.62,1.24,2.44,1.84.65.48,1.3.96,1.95,1.44.82.6,1.64,1.19,2.46,1.77.66.47,1.32.93,1.99,1.39.83.58,1.67,1.15,2.5,1.72.67.45,1.33.9,2,1.34.85.56,1.71,1.12,2.57,1.67.67.43,1.34.86,2.01,1.28.88.55,1.76,1.09,2.65,1.63.66.41,1.33.81,2,1.21.92.55,1.84,1.08,2.77,1.62.65.38,1.29.76,1.95,1.13.98.56,1.98,1.1,2.97,1.65.61.33,1.21.67,1.82,1,1.13.61,2.28,1.2,3.43,1.8.48.25.96.5,1.44.75,3.28,1.67,6.62,3.27,10.01,4.81.51.23,1.04.46,1.55.69,1.19.53,2.37,1.06,3.57,1.57.63.27,1.28.53,1.91.8.88.37,1.76.75,2.65,1.11-9.6,45.58-26.32,90.12-48.4,128.88Z"/><path fill="#DC7A3C" d="M397.03,100.27h8.6v51.43h68.32v-51.43h8.6v113.18h-8.6v-53.78h-68.32v53.78h-8.6v-113.18Z"/><path fill="#DC7A3C" d="M496.77,168.74c0-32.2,21.57-46.43,43.77-46.43s43.93,14.23,43.93,46.43-21.73,46.74-43.77,46.74-43.93-14.23-43.93-46.74ZM576.03,168.74c0-23.61-14.23-38.46-35.49-38.46s-35.33,14.7-35.33,38.46,13.91,38.77,35.49,38.77,35.33-14.85,35.33-38.77Z"/><path fill="#DC7A3C" d="M597.29,94.95h8.6v118.5h-8.6v-118.5Z"/><path fill="#DC7A3C" d="M620.73,104.17c0-3.28,2.5-5.63,5.63-5.63s5.78,2.35,5.78,5.63-2.66,5.63-5.78,5.63-5.63-2.5-5.63-5.63ZM622.14,124.03h8.29v89.42h-8.29v-89.42Z"/><path fill="#DC7A3C" d="M644.54,193.28l7.35-3.13c6.25,10.47,18.6,16.88,34.08,16.88,17.82,0,28.61-7.04,28.61-18.45,0-25.64-64.72-7.82-64.72-42.05,0-14.23,14.38-24.08,35.02-24.08,15.63,0,29.08,7.19,35.8,17.82l-7.04,3.6c-5.63-8.13-16.26-13.6-28.76-13.6-16.1,0-26.58,6.41-26.58,16.41,0,25.95,64.88,7.66,64.88,41.9,0,15.95-14.7,26.42-37.21,26.42-18.76,0-34.55-8.6-41.43-21.73Z"/><path fill="#DC7A3C" d="M742.25,176.56v-45.18h-13.6v-7.35h13.6v-16.88l8.6-1.88v18.76h29.08v7.35h-29.08v44.71c0,23.45,5.47,31.11,21.73,31.11,1.72,0,3.6-.16,7.19-.78l1.41,7.35c-3.28.63-6.88.78-9.07.78-21.26,0-29.86-10.32-29.86-37.99Z"/><path fill="#DC7A3C" d="M792.55,104.17c0-3.28,2.5-5.63,5.63-5.63s5.78,2.35,5.78,5.63-2.66,5.63-5.78,5.63-5.63-2.5-5.63-5.63ZM793.96,124.03h8.29v89.42h-8.29v-89.42Z"/><path fill="#DC7A3C" d="M814.28,168.74c0-27.04,17.98-46.43,43.15-46.43,19.54,0,33.14,9.22,40.33,26.89l-7.66,2.5c-6.1-14.23-17.04-21.42-32.52-21.42-20.48,0-34.86,15.79-34.86,38.46s14.38,38.46,34.86,38.46c15.16,0,26.73-7.5,32.52-21.42l7.66,2.5c-6.72,17.2-21.11,26.89-40.33,26.89-25.17,0-43.15-19.39-43.15-46.43Z"/><path fill="#3C4142" d="M396.56,236.53h69.1v16.26h-50.96v34.08h48.15v15.32h-48.15v47.53h-18.13v-113.18Z"/><path fill="#3C4142" d="M512.4,260.29h17.51v15.01c3.44-9.54,12.82-18.29,31.42-15.63l-1.88,16.88c-20.01-3.75-29.55,7.04-29.55,28.92v44.24h-17.51v-89.42Z"/><path fill="#3C4142" d="M561.8,305c0-27.51,18.45-46.43,45.18-46.43,28.45,0,45.65,20.95,43.46,50.96h-71.13c.62,17.35,11.41,27.2,28.76,27.2,12.51,0,20.64-4.22,25.01-12.82l16.1,2.5c-7.19,16.57-21.26,25.01-41.43,25.01-27.83,0-45.96-18.45-45.96-46.43ZM634.02,295.78c-1.25-14.23-10.94-23.29-26.73-23.29s-25.48,7.82-27.51,23.29h54.25Z"/><path fill="#3C4142" d="M698.89,320.63l17.04-3.44c4.69,11.72,15.48,18.29,29.86,18.29,15.63,0,24.54-6.25,24.54-17.04,0-26.73-66.6-8.13-66.6-51.75,0-18.92,15.95-31.89,39.24-31.89s38.46,10.16,44.24,29.08l-16.57,3.28c-4.85-10.79-13.6-16.26-27.2-16.26s-22.2,5.94-22.2,15.79c0,28.14,66.91,7.5,66.91,51.75,0,19.85-16.57,32.83-42.21,32.83-23.61,0-41.27-11.26-47.06-30.64Z"/><path fill="#3C4142" d="M797.07,305c0-30.8,18.76-46.43,40.96-46.43,14.07,0,26.58,6.88,31.74,19.23v-17.51h17.51v89.27h-17.51v-16.88c-5,12.04-17.67,19.07-31.58,19.07-22.2,0-41.12-15.79-41.12-46.74ZM870.23,305c0-19.54-11.41-31.58-27.98-31.58s-27.67,11.88-27.67,31.58,11.26,31.74,27.98,31.74,27.67-12.04,27.67-31.74Z"/><path fill="#3C4142" d="M911.39,273.89h-12.35v-13.6h12.35v-3.6c0-19.23,10.47-28.92,31.11-28.92,5.47,0,11.73.62,15.79,1.41l-2.5,13.29c-3.28-.63-6.57-.78-9.85-.78-11.41,0-16.88,5-16.88,15.48v3.13h25.17v13.6h-25.17v75.82h-17.67v-75.82Z"/><path fill="#3C4142" d="M955.63,305c0-27.51,18.45-46.43,45.18-46.43,28.45,0,45.65,20.95,43.46,50.96h-71.13c.62,17.35,11.41,27.2,28.76,27.2,12.51,0,20.64-4.22,25.01-12.82l16.1,2.5c-7.19,16.57-21.26,25.01-41.43,25.01-27.83,0-45.96-18.45-45.96-46.43ZM1027.86,295.78c-1.25-14.23-10.94-23.29-26.73-23.29s-25.48,7.82-27.51,23.29h54.25Z"/><path fill="#3C4142" d="M1062.56,314.07v-40.18h-12.98v-13.6h12.98v-16.41l17.67-3.75v20.17h26.42v13.6h-26.42v38.14c0,18.45,4.85,24.86,18.45,24.86,1.72,0,3.75-.31,7.19-.78l2.35,13.6c-3.44.78-8.44,1.25-12.19,1.25-22.98,0-33.46-9.54-33.46-36.89Z"/><path fill="#3C4142" d="M1153.39,349.09l-38.61-88.8h19.23l28.76,69.88,28.77-69.88h19.23l-51.28,118.34h-19.23l13.13-29.55Z"/><path fill="#3C4142" d="M479.57,245.91c0-5.94,4.38-9.38,10.32-9.38,5.63,0,10.47,3.44,10.47,9.38s-4.85,9.38-10.47,9.38c-5.94,0-10.32-3.6-10.32-9.38ZM481.13,264.81h17.35v84.91h-17.35v-84.91Z"/><path fill="#DC7A3C" d="M396.47,379.17h8.43c10.21,0,15.48,2.47,15.48,10.99s-5.27,10.94-15.48,10.94h-4.72v11.22h-3.71v-33.15ZM405.3,397.67c7.24,0,11.31-1.37,11.31-7.56s-4.08-7.56-11.31-7.56h-5.13v15.11h5.13Z"/><path fill="#DC7A3C" d="M424.26,400.19v-14.06h3.57v13.83c0,6.46,2.47,9.57,8.15,9.57s8.11-3.8,8.11-10.4v-13h3.57v26.19h-3.57v-5.59c-1.14,3.57-4.21,6.04-8.93,6.04-7.42,0-10.9-4.35-10.9-12.59Z"/><path fill="#DC7A3C" d="M456.23,401.65v-12.59h-3.89v-2.93h3.89v-4.9l3.66-.78v5.68h8.2v2.93h-8.2v12.27c0,6.23,1.51,8.33,5.95,8.33.5,0,1.05-.05,2.11-.23l.5,2.93c-.96.18-2.2.32-3.02.32-6.46,0-9.2-2.98-9.2-11.04Z"/><path fill="#DC7A3C" d="M475.53,401.65v-12.59h-3.89v-2.93h3.89v-4.9l3.66-.78v5.68h8.2v2.93h-8.2v12.27c0,6.23,1.51,8.33,5.95,8.33.5,0,1.05-.05,2.11-.23l.5,2.93c-.96.18-2.2.32-3.02.32-6.46,0-9.2-2.98-9.2-11.04Z"/><path fill="#DC7A3C" d="M491.91,379.99c0-1.28.96-2.11,2.2-2.11s2.29.82,2.29,2.11-1.05,2.11-2.29,2.11-2.2-.82-2.2-2.11ZM492.32,386.13h3.53v26.19h-3.53v-26.19Z"/><path fill="#DC7A3C" d="M501.16,386.13h3.57v5.59c1.19-3.57,4.21-6.04,8.98-6.04,7.42,0,10.9,4.35,10.9,12.64v14.01h-3.57v-13.78c0-6.5-2.56-9.62-8.2-9.62s-8.11,3.8-8.11,10.39v13h-3.57v-26.19Z"/><path fill="#DC7A3C" d="M529.82,414.84l3.39-.96c1.56,2.98,4.85,4.9,8.84,4.9,6,0,9.43-2.93,9.43-10.44v-2.47c-1.6,4.49-5.54,6.41-9.98,6.41-6.5,0-12.36-4.26-12.36-13.33s5.86-13.28,12.32-13.28c4.44,0,8.43,1.88,10.03,6.41v-5.95h3.62v21.75c0,9.75-4.72,13.92-13.05,13.92-5.72,0-10.3-2.61-12.23-6.96ZM551.57,398.95c0-6.41-3.76-10.35-9.48-10.35s-9.39,3.94-9.39,10.35,3.75,10.35,9.48,10.35,9.39-3.94,9.39-10.35Z"/><path fill="#DC7A3C" d="M576.39,386.13h3.57v5.86c1.6-4.21,5.45-6.46,10.07-6.46,6.23,0,12.32,4.17,12.32,13.65s-6.14,13.55-12.36,13.55c-4.58,0-8.43-2.24-10.03-6.46v14.52h-3.57v-34.66ZM598.74,399.18c0-6.46-3.71-10.49-9.34-10.49s-9.48,3.98-9.48,10.49,3.75,10.4,9.39,10.4,9.43-3.98,9.43-10.4Z"/><path fill="#DC7A3C" d="M606.25,399.23c0-8.06,5.31-13.6,13.05-13.6s13.1,5.77,12.55,14.29h-22.03c.14,6.09,3.85,9.75,9.75,9.75,4.17,0,6.87-1.56,8.52-4.53l3.3.73c-2.24,4.53-6.14,6.96-11.86,6.96-8.06,0-13.28-5.4-13.28-13.6ZM628.41,396.89c-.32-5.04-3.71-8.24-9.07-8.24s-8.75,3.07-9.39,8.24h18.45Z"/><path fill="#DC7A3C" d="M635.78,399.23c0-9.43,6.41-13.6,12.96-13.6s13.05,4.17,13.05,13.6-6.41,13.69-12.96,13.69-13.05-4.17-13.05-13.69ZM658.22,399.23c0-6.41-3.8-10.39-9.48-10.39s-9.39,3.94-9.39,10.39,3.75,10.49,9.48,10.49,9.39-4.03,9.39-10.49Z"/><path fill="#DC7A3C" d="M665.91,386.13h3.57v5.86c1.6-4.21,5.45-6.46,10.07-6.46,6.23,0,12.32,4.17,12.32,13.65s-6.14,13.55-12.36,13.55c-4.58,0-8.43-2.24-10.03-6.46v14.52h-3.57v-34.66ZM688.26,399.18c0-6.46-3.71-10.49-9.34-10.49s-9.48,3.98-9.48,10.49,3.75,10.4,9.39,10.4,9.43-3.98,9.43-10.4Z"/><path fill="#DC7A3C" d="M696.96,377.61h3.62v34.71h-3.62v-34.71Z"/><path fill="#DC7A3C" d="M705.48,399.23c0-8.06,5.31-13.6,13.05-13.6s13.1,5.77,12.55,14.29h-22.03c.14,6.09,3.85,9.75,9.75,9.75,4.17,0,6.87-1.56,8.52-4.53l3.3.73c-2.24,4.53-6.14,6.96-11.86,6.96-8.06,0-13.28-5.4-13.28-13.6ZM727.64,396.89c-.32-5.04-3.71-8.24-9.07-8.24s-8.75,3.07-9.39,8.24h18.45Z"/><path fill="#DC7A3C" d="M752.64,389.06h-3.66v-2.93h3.66v-1.15c0-5.36,2.84-8.06,8.43-8.06,1.37,0,2.93.14,4.12.37l-.6,2.93c-.92-.18-1.92-.28-2.98-.28-3.57,0-5.31,1.69-5.31,5.13v1.05h7.69v2.93h-7.69v23.26h-3.66v-23.26Z"/><path fill="#DC7A3C" d="M768.8,379.99c0-1.28.96-2.11,2.2-2.11s2.29.82,2.29,2.11-1.05,2.11-2.29,2.11-2.2-.82-2.2-2.11ZM769.22,386.13h3.53v26.19h-3.53v-26.19Z"/><path fill="#DC7A3C" d="M778.05,386.13h3.57v4.76c1.1-3.11,3.89-5.72,9.52-4.85l-.46,3.53c-6.36-1.19-9.07,2.56-9.07,9.2v13.55h-3.57v-26.19Z"/><path fill="#DC7A3C" d="M792.34,406.23l3.25-1.05c1.6,2.79,4.81,4.4,8.98,4.4,4.76,0,7.51-1.74,7.51-4.67,0-6.87-18.32-1.56-18.32-12,0-4.3,4.44-7.23,10.49-7.23,4.62,0,8.98,2.24,10.76,5.54l-3.11,1.15c-1.47-2.2-4.3-3.57-7.6-3.57-4.3,0-6.96,1.6-6.96,4.21,0,6.87,18.36,1.47,18.36,11.86,0,4.81-4.35,7.92-11.13,7.92-5.68,0-10.35-2.56-12.23-6.55Z"/><path fill="#DC7A3C" d="M821.37,401.65v-12.59h-3.89v-2.93h3.89v-4.9l3.66-.78v5.68h8.2v2.93h-8.2v12.27c0,6.23,1.51,8.33,5.95,8.33.5,0,1.05-.05,2.11-.23l.5,2.93c-.96.18-2.2.32-3.02.32-6.46,0-9.2-2.98-9.2-11.04Z"/></svg>